<svg xmlns="http://www.w3.org/2000/svg" xmlns:xlink="http://www.w3.org/1999/xlink" width="500" zoomAndPan="magnify" viewBox="0 0 375 374.999991" height="500" preserveAspectRatio="xMidYMid meet" version="1.0"><defs><g/><clipPath id="411f221250"><path d="M 127.804688 133 L 131 133 L 131 151 L 127.804688 151 Z M 127.804688 133 " clip-rule="nonzero"/></clipPath><clipPath id="ab6ab42d5a"><path d="M 167 206 L 184 206 L 184 210.804688 L 167 210.804688 Z M 167 206 " clip-rule="nonzero"/></clipPath><clipPath id="366cd236ee"><path d="M 183 210 L 185 210 L 185 210.804688 L 183 210.804688 Z M 183 210 " clip-rule="nonzero"/></clipPath><clipPath id="f0e64ce793"><path d="M 227 87.804688 L 241 87.804688 L 241 102 L 227 102 Z M 227 87.804688 " clip-rule="nonzero"/></clipPath></defs><path fill="#689ac5" d="M 186.636719 91.289062 C 187.921875 91.601562 189.636719 92.015625 190.925781 92.328125 C 191.40625 91.84375 192.039062 91.191406 192.476562 90.667969 C 191.3125 89.867188 190.128906 89.234375 188.9375 88.78125 C 187.917969 88.660156 186.558594 88.503906 185.539062 88.402344 C 185.339844 88.667969 185.039062 88.996094 184.796875 89.222656 C 185.402344 89.738281 186.015625 90.429688 186.636719 91.289062 " fill-opacity="1" fill-rule="nonzero"/><path fill="#274082" d="M 179.160156 92.28125 C 180.140625 92.609375 181.449219 93.042969 182.433594 93.355469 C 183.238281 92.800781 184.3125 92.050781 185.105469 91.476562 C 184.632812 90.597656 184.164062 89.886719 183.714844 89.355469 C 183.015625 89.21875 182.085938 89.039062 181.386719 88.90625 C 180.824219 89.210938 180.066406 89.621094 179.5 89.925781 C 179.355469 90.539062 179.242188 91.328125 179.160156 92.28125 " fill-opacity="1" fill-rule="nonzero"/><path fill="#69a2cd" d="M 171.976562 93.429688 C 172.589844 93.800781 173.421875 94.277344 174.0625 94.601562 C 175.140625 93.972656 176.574219 93.132812 177.652344 92.503906 C 177.878906 91.53125 178.136719 90.71875 178.429688 90.082031 C 178.082031 89.929688 177.617188 89.714844 177.292969 89.515625 C 176.425781 89.875 175.269531 90.363281 174.40625 90.738281 C 173.542969 91.46875 172.734375 92.367188 171.976562 93.429688 " fill-opacity="1" fill-rule="nonzero"/><path fill="#69a2cd" d="M 165.550781 94.660156 C 165.742188 95.082031 166.054688 95.617188 166.339844 95.976562 C 167.609375 95.28125 169.308594 94.359375 170.585938 93.675781 C 171.472656 92.59375 172.417969 91.667969 173.421875 90.914062 C 173.390625 90.695312 173.410156 90.378906 173.519531 90.1875 C 172.414062 90.601562 170.945312 91.167969 169.851562 91.609375 C 168.34375 92.464844 166.910156 93.484375 165.550781 94.660156 " fill-opacity="1" fill-rule="nonzero"/><path fill="#69a2cd" d="M 160.34375 95.898438 C 160.132812 96.324219 159.882812 96.921875 159.800781 97.394531 C 161.164062 96.636719 162.992188 95.640625 164.371094 94.917969 C 165.839844 93.714844 167.390625 92.667969 169.015625 91.792969 C 169.382812 91.484375 169.902344 91.113281 170.320312 90.878906 C 169.066406 91.347656 167.402344 91.984375 166.160156 92.488281 C 164.132812 93.464844 162.191406 94.605469 160.34375 95.898438 " fill-opacity="1" fill-rule="nonzero"/><path fill="#69a2cd" d="M 156.914062 97.03125 C 156.3125 97.523438 155.527344 98.199219 154.988281 98.757812 C 156.324219 97.957031 158.113281 96.902344 159.472656 96.144531 C 161.402344 94.828125 163.429688 93.664062 165.542969 92.664062 C 166.257812 92.304688 167.226562 91.851562 167.964844 91.546875 C 166.6875 92.050781 164.988281 92.742188 163.730469 93.292969 C 161.359375 94.382812 159.082031 95.632812 156.914062 97.03125 " fill-opacity="1" fill-rule="nonzero"/><path fill="#69a2cd" d="M 156.492188 97.230469 C 157.75 96.425781 159.042969 95.664062 160.367188 94.957031 C 158.507812 96.03125 156.054688 97.511719 154.261719 98.695312 L 153.953125 98.910156 C 154.710938 98.40625 155.722656 97.71875 156.492188 97.230469 " fill-opacity="1" fill-rule="nonzero"/><path fill="#3a6ab9" d="M 210.546875 99.886719 C 212.535156 100.578125 215.1875 101.503906 217.171875 102.203125 C 218.441406 101.171875 220.128906 99.789062 221.378906 98.734375 C 220.414062 96.863281 219.410156 95.121094 218.367188 93.515625 C 216.558594 92.957031 214.148438 92.214844 212.335938 91.664062 C 211.261719 92.539062 209.820312 93.691406 208.726562 94.542969 C 209.339844 96.191406 209.949219 97.976562 210.546875 99.886719 " fill-opacity="1" fill-rule="nonzero"/><path fill="#274082" d="M 179.414062 108.292969 C 181.207031 108.96875 183.597656 109.867188 185.390625 110.535156 C 186.90625 109.417969 188.925781 107.925781 190.4375 106.804688 C 189.9375 104.882812 189.433594 103.082031 188.929688 101.421875 C 187.328125 100.886719 185.191406 100.171875 183.59375 99.628906 C 182.25 100.566406 180.460938 101.816406 179.117188 102.75 C 179.1875 104.46875 179.289062 106.320312 179.414062 108.292969 " fill-opacity="1" fill-rule="nonzero"/><path fill="#3881b6" d="M 166.09375 110.425781 C 167.585938 111.109375 169.582031 112.007812 171.089844 112.660156 C 172.746094 111.472656 174.957031 109.890625 176.617188 108.710938 C 176.585938 106.722656 176.589844 104.855469 176.628906 103.117188 C 175.320312 102.585938 173.578125 101.871094 172.28125 101.3125 C 170.773438 102.308594 168.765625 103.640625 167.261719 104.644531 C 166.808594 106.449219 166.417969 108.378906 166.09375 110.425781 " fill-opacity="1" fill-rule="nonzero"/><path fill="#3a6ab9" d="M 154.175781 112.707031 C 155.277344 113.421875 156.761719 114.351562 157.894531 115.011719 C 159.574219 113.761719 161.820312 112.109375 163.515625 110.882812 C 163.925781 108.824219 164.410156 106.875 164.964844 105.054688 C 164.019531 104.507812 162.765625 103.765625 161.851562 103.167969 C 160.285156 104.210938 158.203125 105.613281 156.652344 106.675781 C 155.730469 108.570312 154.902344 110.585938 154.175781 112.707031 " fill-opacity="1" fill-rule="nonzero"/><path fill="#689ac5" d="M 144.527344 115.003906 C 145.148438 115.761719 146.019531 116.742188 146.71875 117.429688 C 148.289062 116.140625 150.390625 114.433594 151.988281 113.179688 C 152.792969 111.042969 153.699219 109.007812 154.707031 107.097656 C 154.167969 106.523438 153.46875 105.726562 153.011719 105.082031 C 151.515625 106.15625 149.53125 107.605469 148.0625 108.71875 C 146.761719 110.703125 145.582031 112.800781 144.527344 115.003906 " fill-opacity="1" fill-rule="nonzero"/><path fill="#689ac5" d="M 138.164062 117.105469 C 138.195312 117.90625 138.304688 118.980469 138.5 119.761719 C 139.796875 118.445312 141.554688 116.71875 142.910156 115.460938 C 144.019531 113.242188 145.261719 111.128906 146.625 109.128906 C 146.527344 108.472656 146.449219 107.582031 146.511719 106.925781 C 145.257812 108 143.605469 109.457031 142.402344 110.589844 C 140.851562 112.65625 139.4375 114.832031 138.164062 117.105469 " fill-opacity="1" fill-rule="nonzero"/><path fill="#274082" d="M 134.484375 121.664062 C 135.316406 120.378906 136.464844 118.695312 137.382812 117.476562 C 138.683594 115.191406 140.125 113 141.707031 110.921875 C 142.15625 110.148438 142.796875 109.140625 143.335938 108.429688 L 142.472656 109.410156 L 140.449219 111.917969 C 136.890625 116.972656 136.820312 117.070312 135.273438 119.910156 L 135.269531 119.917969 C 135.035156 120.441406 134.675781 121.121094 134.484375 121.664062 " fill-opacity="1" fill-rule="nonzero"/><path fill="#69a2cd" d="M 199.097656 131.347656 C 201.367188 132.324219 204.390625 133.636719 206.652344 134.636719 C 208.429688 133.222656 210.796875 131.332031 212.570312 129.914062 C 211.996094 127.257812 211.347656 124.691406 210.644531 122.222656 C 208.429688 121.316406 205.472656 120.117188 203.25 119.234375 C 201.566406 120.550781 199.3125 122.300781 197.621094 123.609375 C 198.136719 126.097656 198.628906 128.679688 199.097656 131.347656 " fill-opacity="1" fill-rule="nonzero"/><path fill="#4186b9" d="M 181.859375 133.628906 C 184.082031 134.558594 187.050781 135.804688 189.273438 136.742188 C 191.15625 135.25 193.675781 133.261719 195.570312 131.777344 C 195.132812 129.105469 194.679688 126.515625 194.214844 124.023438 C 192.058594 123.175781 189.183594 122.042969 187.027344 121.199219 C 185.203125 122.582031 182.78125 124.425781 180.964844 125.816406 C 181.234375 128.335938 181.535156 130.941406 181.859375 133.628906 " fill-opacity="1" fill-rule="nonzero"/><path fill="#69a2cd" d="M 150.460938 139.121094 C 152.214844 140.03125 154.558594 141.230469 156.328125 142.109375 C 158.039062 140.515625 160.332031 138.40625 162.078125 136.851562 C 161.917969 134.136719 161.84375 131.492188 161.851562 128.925781 C 160.171875 128.125 157.933594 127.042969 156.269531 126.207031 C 154.5625 127.667969 152.300781 129.625 150.625 131.121094 C 150.453125 133.71875 150.398438 136.386719 150.460938 139.121094 " fill-opacity="1" fill-rule="nonzero"/><path fill="#3881b6" d="M 138.457031 141.972656 C 139.785156 142.910156 141.574219 144.132812 142.9375 145.007812 C 144.355469 143.394531 146.269531 141.265625 147.742188 139.707031 C 147.699219 136.972656 147.789062 134.292969 148 131.691406 C 146.714844 130.878906 145.015625 129.78125 143.769531 128.914062 C 142.324219 130.382812 140.417969 132.359375 139.027344 133.878906 C 138.683594 136.515625 138.492188 139.21875 138.457031 141.972656 " fill-opacity="1" fill-rule="nonzero"/><path fill="#3881b6" d="M 130.546875 144.589844 C 131.257812 145.589844 132.265625 146.890625 133.089844 147.800781 C 134.050781 146.195312 135.378906 144.082031 136.449219 142.542969 C 136.5 139.78125 136.714844 137.074219 137.085938 134.429688 C 136.292969 133.59375 135.261719 132.445312 134.574219 131.519531 C 133.574219 132.960938 132.277344 134.902344 131.382812 136.40625 C 130.925781 139.078125 130.644531 141.8125 130.546875 144.589844 " fill-opacity="1" fill-rule="nonzero"/><g clip-path="url(#411f221250)"><path fill="#69a2cd" d="M 127.855469 146.578125 C 127.914062 147.636719 128.054688 149.046875 128.277344 150.078125 C 128.601562 148.554688 129.097656 146.535156 129.574219 145.050781 C 129.683594 142.269531 129.976562 139.53125 130.441406 136.851562 C 130.269531 135.898438 130.09375 134.613281 130.082031 133.648438 C 129.671875 134.917969 129.148438 136.617188 128.855469 137.917969 L 128.851562 137.945312 C 128.582031 139.785156 128.191406 142.238281 128.015625 144.089844 L 127.855469 146.578125 " fill-opacity="1" fill-rule="nonzero"/></g><path fill="#69a2cd" d="M 186.125 163.496094 C 188.257812 164.398438 191.105469 165.609375 193.238281 166.527344 C 195.074219 165.074219 197.53125 163.140625 199.382812 161.703125 C 199.136719 159.023438 198.859375 156.28125 198.550781 153.5 C 196.320312 152.503906 193.347656 151.179688 191.113281 150.195312 C 189.226562 151.738281 186.710938 153.800781 184.832031 155.355469 C 185.253906 158.121094 185.6875 160.839844 186.125 163.496094 " fill-opacity="1" fill-rule="nonzero"/><path fill="#274082" d="M 209.644531 152.578125 C 211.78125 153.433594 214.632812 154.574219 216.769531 155.429688 C 218.421875 153.941406 220.628906 151.972656 222.304688 150.515625 C 221.820312 147.867188 221.347656 145.15625 220.898438 142.390625 C 218.683594 141.457031 215.730469 140.207031 213.519531 139.265625 C 211.792969 140.832031 209.5 142.929688 207.800781 144.523438 C 208.359375 147.269531 208.976562 149.957031 209.644531 152.578125 " fill-opacity="1" fill-rule="nonzero"/><path fill="#69a2cd" d="M 155.765625 168.804688 C 157.769531 169.632812 160.445312 170.730469 162.457031 171.539062 C 163.800781 170.042969 165.609375 168.066406 166.996094 166.613281 C 166.28125 164 165.628906 161.316406 165.046875 158.578125 C 162.976562 157.683594 160.222656 156.480469 158.164062 155.5625 C 156.722656 157.128906 154.816406 159.234375 153.425781 160.847656 C 154.101562 163.570312 154.886719 166.226562 155.765625 168.804688 " fill-opacity="1" fill-rule="nonzero"/><path fill="#3881b6" d="M 144.15625 171.5625 C 145.886719 172.386719 148.199219 173.464844 149.945312 174.246094 C 150.871094 172.761719 152.132812 170.804688 153.136719 169.375 C 152.21875 166.800781 151.40625 164.152344 150.703125 161.433594 C 148.914062 160.5625 146.535156 159.382812 144.769531 158.460938 C 143.730469 160.011719 142.371094 162.097656 141.414062 163.703125 C 142.191406 166.402344 143.109375 169.027344 144.15625 171.5625 " fill-opacity="1" fill-rule="nonzero"/><path fill="#69a2cd" d="M 136.507812 174.09375 C 137.753906 174.957031 139.441406 176.074219 140.742188 176.855469 C 141.125 175.417969 141.691406 173.507812 142.214844 172.117188 C 141.140625 169.582031 140.199219 166.964844 139.40625 164.269531 C 138.035156 163.402344 136.226562 162.210938 134.917969 161.253906 C 134.433594 162.753906 133.835938 164.777344 133.5 166.316406 C 134.34375 168.996094 135.347656 171.589844 136.507812 174.09375 " fill-opacity="1" fill-rule="nonzero"/><path fill="#69a2cd" d="M 133.90625 176.019531 C 134.5625 176.941406 135.488281 178.144531 136.246094 178.984375 C 135.976562 177.664062 135.675781 175.882812 135.566406 174.539062 C 134.398438 172.042969 133.378906 169.453125 132.527344 166.777344 C 131.753906 165.84375 130.761719 164.558594 130.105469 163.535156 C 130.25 164.976562 130.503906 166.894531 130.808594 168.308594 C 131.675781 170.96875 132.710938 173.542969 133.90625 176.019531 " fill-opacity="1" fill-rule="nonzero"/><path fill="#3881b6" d="M 203.289062 187.371094 C 204.609375 188.117188 206.363281 189.128906 207.65625 189.925781 C 209.238281 188.84375 211.355469 187.410156 212.949219 186.34375 C 213.472656 184.199219 213.929688 181.949219 214.316406 179.609375 C 212.796875 178.683594 210.757812 177.472656 209.210938 176.597656 C 207.484375 177.839844 205.183594 179.503906 203.46875 180.765625 C 203.449219 183.066406 203.390625 185.273438 203.289062 187.371094 " fill-opacity="1" fill-rule="nonzero"/><path fill="#274082" d="M 190.929688 189.007812 C 192.503906 189.6875 194.597656 190.609375 196.15625 191.320312 C 197.527344 190.214844 199.367188 188.753906 200.757812 187.679688 C 200.746094 185.59375 200.703125 183.398438 200.628906 181.109375 C 198.851562 180.269531 196.476562 179.164062 194.683594 178.359375 C 193.148438 179.617188 191.101562 181.3125 189.589844 182.601562 C 190.039062 184.839844 190.484375 186.980469 190.929688 189.007812 " fill-opacity="1" fill-rule="nonzero"/><path fill="#3881b6" d="M 179.046875 190.910156 C 180.78125 191.53125 183.089844 192.367188 184.820312 193.007812 C 185.886719 191.902344 187.328125 190.445312 188.433594 189.378906 C 187.882812 187.367188 187.332031 185.242188 186.789062 183.019531 C 184.863281 182.253906 182.292969 181.238281 180.363281 180.488281 C 179.109375 181.746094 177.457031 183.4375 176.246094 184.734375 C 177.148438 186.902344 178.082031 188.964844 179.046875 190.910156 " fill-opacity="1" fill-rule="nonzero"/><path fill="#3881b6" d="M 159.8125 194.988281 C 161.519531 195.535156 163.792969 196.257812 165.507812 196.785156 C 165.742188 195.746094 166.113281 194.371094 166.46875 193.367188 C 164.949219 191.53125 163.5 189.570312 162.121094 187.496094 C 160.269531 186.835938 157.804688 185.945312 155.960938 185.265625 C 155.519531 186.464844 154.96875 188.082031 154.644531 189.320312 C 156.273438 191.332031 158 193.226562 159.8125 194.988281 " fill-opacity="1" fill-rule="nonzero"/><path fill="#69a2cd" d="M 154.136719 196.863281 C 155.585938 197.417969 157.523438 198.128906 158.992188 198.632812 C 158.738281 197.679688 158.464844 196.382812 158.371094 195.398438 C 156.496094 193.652344 154.710938 191.773438 153.027344 189.777344 C 151.429688 189.144531 149.304688 188.28125 147.730469 187.597656 C 147.824219 188.753906 148.015625 190.296875 148.277344 191.425781 C 150.121094 193.367188 152.078125 195.183594 154.136719 196.863281 " fill-opacity="1" fill-rule="nonzero"/><path fill="#69a2cd" d="M 152.210938 198.292969 C 153.273438 198.875 154.710938 199.625 155.808594 200.140625 C 155.054688 199.292969 154.089844 198.128906 153.441406 197.195312 C 151.351562 195.527344 149.363281 193.726562 147.492188 191.796875 C 146.339844 191.140625 144.816406 190.234375 143.707031 189.503906 C 144.378906 190.589844 145.324219 192.015625 146.109375 193.027344 C 148.027344 194.914062 150.066406 196.675781 152.210938 198.292969 " fill-opacity="1" fill-rule="nonzero"/><path fill="#274082" d="M 198.355469 199.394531 C 199.019531 199.734375 199.90625 200.199219 200.546875 200.585938 C 201.140625 200.042969 201.945312 199.335938 202.570312 198.824219 C 202.796875 197.714844 202.988281 196.441406 203.148438 195.019531 C 202.207031 194.457031 200.941406 193.734375 199.972656 193.21875 C 199.128906 193.984375 198.011719 195.019531 197.203125 195.824219 C 197.601562 197.167969 197.984375 198.363281 198.355469 199.394531 " fill-opacity="1" fill-rule="nonzero"/><path fill="#69a2cd" d="M 189.464844 204.53125 C 190.65625 204.765625 192.246094 205.078125 193.4375 205.316406 C 193.257812 204.890625 193.074219 204.292969 193.035156 203.832031 C 191.808594 202.941406 190.589844 201.882812 189.386719 200.667969 C 187.964844 200.25 186.066406 199.699219 184.640625 199.289062 C 184.503906 199.988281 184.359375 200.9375 184.351562 201.652344 C 186.027344 202.773438 187.734375 203.738281 189.464844 204.53125 " fill-opacity="1" fill-rule="nonzero"/><path fill="#3881b6" d="M 179.613281 209.222656 C 180.972656 209.375 182.789062 209.5625 184.152344 209.6875 C 183.320312 209.398438 182.21875 208.980469 181.425781 208.597656 C 179.085938 207.949219 176.789062 207.128906 174.542969 206.148438 C 173.046875 205.839844 171.046875 205.414062 169.554688 205.082031 C 170.25 205.707031 171.214844 206.503906 171.984375 207.035156 C 174.46875 207.933594 177.015625 208.667969 179.613281 209.222656 " fill-opacity="1" fill-rule="nonzero"/><g clip-path="url(#ab6ab42d5a)"><path fill="#274082" d="M 178.785156 209.835938 C 180.050781 209.96875 181.738281 210.132812 183.003906 210.234375 C 181.890625 210.003906 180.410156 209.667969 179.316406 209.367188 C 176.675781 208.832031 174.085938 208.117188 171.5625 207.234375 C 170.253906 206.9375 168.507812 206.53125 167.203125 206.195312 C 168.273438 206.738281 169.714844 207.433594 170.816406 207.898438 C 173.414062 208.71875 176.074219 209.367188 178.785156 209.835938 " fill-opacity="1" fill-rule="nonzero"/></g><g clip-path="url(#366cd236ee)"><path fill="#69a2cd" d="M 184.332031 210.8125 L 183.597656 210.75 L 184.109375 210.792969 L 184.332031 210.8125 " fill-opacity="1" fill-rule="nonzero"/></g><path fill="#3881b6" d="M 195.289062 96.769531 C 197.058594 97.289062 199.417969 97.984375 201.1875 98.515625 C 201.90625 97.789062 202.851562 96.808594 203.507812 96.027344 C 202.144531 94.6875 200.734375 93.492188 199.292969 92.464844 C 197.753906 92.101562 195.699219 91.625 194.15625 91.285156 C 193.675781 91.839844 193.015625 92.5625 192.492188 93.078125 C 193.4375 94.152344 194.371094 95.386719 195.289062 96.769531 " fill-opacity="1" fill-rule="nonzero"/><path fill="#274082" d="M 184.394531 98.0625 C 185.953125 98.570312 188.03125 99.246094 189.589844 99.75 C 190.648438 98.9375 192.050781 97.84375 193.085938 97.003906 C 192.292969 95.609375 191.484375 94.359375 190.671875 93.273438 C 189.351562 92.925781 187.589844 92.46875 186.265625 92.125 C 185.4375 92.742188 184.324219 93.550781 183.484375 94.144531 C 183.773438 95.296875 184.078125 96.605469 184.394531 98.0625 " fill-opacity="1" fill-rule="nonzero"/><path fill="#69a2cd" d="M 173.589844 99.640625 C 174.847656 100.164062 176.527344 100.847656 177.796875 101.347656 C 179.105469 100.453125 180.847656 99.261719 182.15625 98.363281 C 181.960938 96.894531 181.785156 95.566406 181.628906 94.394531 C 180.609375 94.050781 179.253906 93.582031 178.242188 93.214844 C 177.132812 93.882812 175.652344 94.78125 174.546875 95.453125 C 174.183594 96.699219 173.863281 98.101562 173.589844 99.640625 " fill-opacity="1" fill-rule="nonzero"/><path fill="#3881b6" d="M 163.550781 101.394531 C 164.433594 101.953125 165.625 102.675781 166.539062 103.183594 C 168.007812 102.21875 169.972656 100.941406 171.449219 99.988281 C 171.84375 98.429688 172.285156 97.007812 172.777344 95.738281 C 172.105469 95.375 171.21875 94.875 170.582031 94.460938 C 169.277344 95.1875 167.539062 96.164062 166.242188 96.902344 C 165.273438 98.257812 164.375 99.757812 163.550781 101.394531 " fill-opacity="1" fill-rule="nonzero"/><path fill="#3a6ab9" d="M 154.96875 103.214844 C 155.40625 103.820312 156.035156 104.597656 156.554688 105.136719 C 158.078125 104.113281 160.117188 102.765625 161.65625 101.765625 C 162.585938 100.109375 163.59375 98.585938 164.675781 97.210938 C 164.371094 96.808594 163.988281 96.25 163.789062 95.789062 C 162.390625 96.566406 160.527344 97.609375 159.144531 98.410156 C 157.65625 99.871094 156.261719 101.480469 154.96875 103.214844 " fill-opacity="1" fill-rule="nonzero"/><path fill="#3881b6" d="M 148.527344 104.984375 C 148.480469 105.613281 148.480469 106.460938 148.585938 107.082031 C 150.035156 106.019531 151.976562 104.613281 153.453125 103.585938 C 154.832031 101.828125 156.3125 100.199219 157.890625 98.714844 C 157.976562 98.222656 158.152344 97.566406 158.367188 97.117188 C 156.992188 97.925781 155.167969 99.023438 153.816406 99.871094 C 151.941406 101.441406 150.175781 103.152344 148.527344 104.984375 " fill-opacity="1" fill-rule="nonzero"/><path fill="#3a6ab9" d="M 145.183594 106.457031 C 144.652344 107.144531 143.972656 108.085938 143.539062 108.835938 C 144.726562 107.757812 146.332031 106.34375 147.566406 105.320312 C 149.269531 103.46875 151.089844 101.738281 153.023438 100.148438 C 153.566406 99.566406 154.324219 98.820312 154.933594 98.308594 C 153.753906 99.121094 152.191406 100.222656 151.050781 101.089844 C 148.972656 102.75 147.011719 104.542969 145.183594 106.457031 " fill-opacity="1" fill-rule="nonzero"/><path fill="#3881b6" d="M 204.164062 116.964844 C 206.371094 117.832031 209.308594 118.996094 211.503906 119.890625 C 212.921875 118.703125 214.796875 117.109375 216.179688 115.878906 C 215.238281 113.59375 214.21875 111.417969 213.136719 109.367188 C 211.070312 108.585938 208.308594 107.558594 206.230469 106.816406 C 204.953125 107.894531 203.238281 109.320312 201.941406 110.375 C 202.71875 112.457031 203.460938 114.65625 204.164062 116.964844 " fill-opacity="1" fill-rule="nonzero"/><g clip-path="url(#f0e64ce793)"><path fill="#274082" d="M 228.152344 98.351562 C 230.292969 99.179688 233.144531 100.28125 235.28125 101.113281 C 236.957031 99.824219 239.1875 98.105469 240.851562 96.808594 C 240.214844 94.496094 239.546875 92.289062 238.851562 90.199219 C 236.839844 89.480469 234.15625 88.523438 232.144531 87.808594 C 230.609375 88.960938 228.558594 90.492188 227.015625 91.636719 C 227.386719 93.765625 227.769531 96.007812 228.152344 98.351562 " fill-opacity="1" fill-rule="nonzero"/></g><path fill="#69a2cd" d="M 172.453125 121.15625 C 174.40625 121.964844 177.011719 123.035156 178.96875 123.832031 C 180.765625 122.46875 183.167969 120.648438 184.972656 119.292969 C 184.652344 116.941406 184.347656 114.6875 184.058594 112.546875 C 182.242188 111.859375 179.816406 110.933594 178.003906 110.234375 C 176.320312 111.445312 174.074219 113.066406 172.394531 114.285156 C 172.363281 116.472656 172.382812 118.765625 172.453125 121.15625 " fill-opacity="1" fill-rule="nonzero"/><path fill="#4186b9" d="M 157.785156 123.726562 C 159.4375 124.535156 161.644531 125.601562 163.3125 126.382812 C 165.109375 124.957031 167.511719 123.070312 169.328125 121.667969 C 169.320312 119.265625 169.371094 116.960938 169.480469 114.757812 C 167.957031 114.078125 165.929688 113.160156 164.421875 112.449219 C 162.707031 113.707031 160.425781 115.394531 158.726562 116.675781 C 158.324219 118.929688 158.007812 121.28125 157.785156 123.726562 " fill-opacity="1" fill-rule="nonzero"/><path fill="#274082" d="M 145.238281 126.386719 C 146.480469 127.222656 148.152344 128.316406 149.425781 129.097656 C 151.089844 127.632812 153.320312 125.695312 155.015625 124.265625 C 155.292969 121.8125 155.671875 119.449219 156.144531 117.183594 C 155 116.492188 153.484375 115.550781 152.375 114.804688 C 150.761719 116.09375 148.621094 117.828125 147.039062 119.15625 C 146.316406 121.476562 145.714844 123.890625 145.238281 126.386719 " fill-opacity="1" fill-rule="nonzero"/><path fill="#274082" d="M 135.828125 128.972656 C 136.542969 129.855469 137.539062 131.003906 138.339844 131.808594 C 139.722656 130.324219 141.589844 128.359375 143.027344 126.925781 C 143.542969 124.417969 144.195312 121.992188 144.976562 119.660156 C 144.277344 118.9375 143.371094 117.949219 142.757812 117.15625 C 141.386719 118.457031 139.582031 120.207031 138.265625 121.5625 C 137.304688 123.949219 136.488281 126.421875 135.828125 128.972656 " fill-opacity="1" fill-rule="nonzero"/><path fill="#69a2cd" d="M 130.9375 131.121094 C 130.984375 132.066406 131.113281 133.328125 131.320312 134.25 C 132.210938 132.785156 133.4375 130.855469 134.425781 129.457031 C 135.113281 126.902344 135.964844 124.417969 136.960938 122.019531 C 136.804688 121.203125 136.660156 120.101562 136.667969 119.273438 C 135.746094 120.535156 134.542969 122.242188 133.710938 123.566406 C 132.625 126.007812 131.699219 128.527344 130.9375 131.121094 " fill-opacity="1" fill-rule="nonzero"/><path fill="#3a6ab9" d="M 232.140625 133.3125 C 234.277344 134.375 237.121094 135.808594 239.242188 136.910156 C 241.0625 135.488281 243.484375 133.582031 245.277344 132.125 C 245.140625 130.699219 244.972656 129.273438 244.777344 127.835938 C 244.578125 126.402344 244.355469 124.988281 244.109375 123.589844 C 241.96875 122.488281 239.097656 121.039062 236.925781 120 C 235.140625 121.433594 232.757812 123.347656 230.96875 124.777344 C 231.195312 126.171875 231.40625 127.589844 231.601562 129.027344 C 231.800781 130.460938 231.976562 131.890625 232.140625 133.3125 " fill-opacity="1" fill-rule="nonzero"/><path fill="#3a6ab9" d="M 175.203125 150.078125 C 177.425781 151.03125 180.390625 152.300781 182.617188 153.25 C 184.496094 151.679688 187.003906 149.59375 188.894531 148.035156 C 188.699219 146.617188 188.503906 145.191406 188.308594 143.757812 C 188.109375 142.324219 187.917969 140.90625 187.726562 139.503906 C 185.5 138.550781 182.527344 137.285156 180.300781 136.339844 C 178.410156 137.890625 175.902344 139.96875 174.03125 141.542969 C 174.203125 142.949219 174.386719 144.367188 174.582031 145.804688 C 174.777344 147.238281 174.984375 148.664062 175.203125 150.078125 " fill-opacity="1" fill-rule="nonzero"/><path fill="#69a2cd" d="M 159.160156 152.882812 C 161.230469 153.8125 163.992188 155.042969 166.074219 155.945312 C 167.777344 154.339844 170.054688 152.210938 171.785156 150.632812 C 171.5625 149.21875 171.351562 147.796875 171.15625 146.363281 C 170.960938 144.925781 170.777344 143.503906 170.617188 142.101562 C 168.554688 141.1875 165.8125 139.964844 163.757812 139.035156 C 162.011719 140.613281 159.699219 142.730469 157.992188 144.351562 C 158.132812 145.757812 158.304688 147.179688 158.5 148.617188 C 158.699219 150.050781 158.917969 151.472656 159.160156 152.882812 " fill-opacity="1" fill-rule="nonzero"/><path fill="#689ac5" d="M 145.441406 155.792969 C 147.21875 156.71875 149.601562 157.9375 151.40625 158.816406 C 152.800781 157.195312 154.683594 155.054688 156.128906 153.476562 C 155.882812 152.066406 155.660156 150.644531 155.464844 149.210938 C 155.265625 147.777344 155.097656 146.351562 154.960938 144.941406 C 153.191406 144.042969 150.839844 142.835938 149.089844 141.90625 C 147.617188 143.488281 145.679688 145.621094 144.269531 147.257812 C 144.390625 148.671875 144.550781 150.097656 144.746094 151.535156 C 144.945312 152.96875 145.175781 154.386719 145.441406 155.792969 " fill-opacity="1" fill-rule="nonzero"/><path fill="#689ac5" d="M 135.144531 158.621094 C 136.488281 159.570312 138.300781 160.804688 139.695312 161.679688 C 140.65625 160.066406 141.972656 157.941406 143.019531 156.386719 C 142.75 154.980469 142.515625 153.558594 142.320312 152.125 C 142.125 150.691406 141.96875 149.265625 141.847656 147.851562 C 140.492188 146.949219 138.691406 145.730469 137.378906 144.769531 C 136.316406 146.335938 134.933594 148.453125 133.976562 150.085938 C 134.082031 151.503906 134.230469 152.933594 134.429688 154.367188 C 134.625 155.800781 134.863281 157.21875 135.144531 158.621094 " fill-opacity="1" fill-rule="nonzero"/><path fill="#274082" d="M 129.796875 160.972656 C 130.492188 161.992188 131.46875 163.324219 132.277344 164.257812 C 132.613281 162.710938 133.125 160.660156 133.609375 159.15625 C 133.328125 157.753906 133.085938 156.335938 132.890625 154.902344 C 132.695312 153.46875 132.542969 152.039062 132.441406 150.621094 C 131.652344 149.675781 130.632812 148.382812 129.960938 147.347656 C 129.5 148.855469 128.9375 150.890625 128.628906 152.4375 C 128.726562 153.859375 128.871094 155.289062 129.070312 156.722656 C 129.265625 158.160156 129.507812 159.574219 129.796875 160.972656 " fill-opacity="1" fill-rule="nonzero"/><path fill="#69a2cd" d="M 234.707031 165.367188 C 236.28125 166.273438 238.367188 167.503906 239.910156 168.460938 C 241.710938 167.234375 244.109375 165.59375 245.902344 164.355469 C 246.363281 161.871094 246.730469 159.304688 247 156.679688 C 245.308594 155.605469 243.03125 154.199219 241.296875 153.195312 C 239.402344 154.566406 236.878906 156.390625 234.984375 157.761719 C 234.957031 160.367188 234.863281 162.90625 234.707031 165.367188 " fill-opacity="1" fill-rule="nonzero"/><path fill="#689ac5" d="M 217.777344 170.878906 C 219.597656 171.710938 222.015625 172.835938 223.820312 173.707031 C 225.554688 172.417969 227.867188 170.710938 229.613281 169.441406 C 229.6875 166.988281 229.707031 164.457031 229.671875 161.859375 C 227.699219 160.886719 225.0625 159.605469 223.074219 158.667969 C 221.238281 160.082031 218.792969 161.972656 216.96875 163.402344 C 217.257812 165.96875 217.527344 168.464844 217.777344 170.878906 " fill-opacity="1" fill-rule="nonzero"/><path fill="#3a6ab9" d="M 181.175781 178.386719 C 183.136719 179.164062 185.746094 180.203125 187.699219 180.992188 C 189.230469 179.675781 191.285156 177.9375 192.839844 176.648438 C 192.507812 174.25 192.164062 171.765625 191.808594 169.203125 C 189.703125 168.3125 186.890625 167.125 184.78125 166.246094 C 183.121094 167.683594 180.921875 169.605469 179.289062 171.070312 C 179.894531 173.59375 180.523438 176.035156 181.175781 178.386719 " fill-opacity="1" fill-rule="nonzero"/><path fill="#3881b6" d="M 167.507812 180.78125 C 169.488281 181.507812 172.132812 182.480469 174.113281 183.207031 C 175.339844 181.886719 176.996094 180.144531 178.261719 178.863281 C 177.53125 176.523438 176.832031 174.09375 176.164062 171.578125 C 174.050781 170.75 171.234375 169.636719 169.121094 168.800781 C 167.753906 170.234375 165.945312 172.160156 164.621094 173.636719 C 165.519531 176.109375 166.484375 178.492188 167.507812 180.78125 " fill-opacity="1" fill-rule="nonzero"/><path fill="#3881b6" d="M 155.816406 183.257812 C 157.691406 183.957031 160.1875 184.882812 162.066406 185.5625 C 162.894531 184.257812 164.027344 182.539062 164.925781 181.285156 C 163.832031 179.011719 162.800781 176.636719 161.851562 174.179688 C 159.863281 173.390625 157.214844 172.328125 155.238281 171.515625 C 154.257812 172.929688 152.976562 174.832031 152.078125 176.296875 C 153.222656 178.714844 154.472656 181.039062 155.816406 183.257812 " fill-opacity="1" fill-rule="nonzero"/><path fill="#69a2cd" d="M 142.492188 187.671875 C 143.632812 188.410156 145.175781 189.367188 146.359375 190.03125 C 146.105469 188.871094 145.832031 187.308594 145.742188 186.125 C 144.121094 183.980469 142.625 181.726562 141.261719 179.371094 C 140 178.59375 138.335938 177.527344 137.132812 176.667969 C 137.257812 177.984375 137.484375 179.742188 137.773438 181.035156 C 139.207031 183.355469 140.785156 185.574219 142.492188 187.671875 " fill-opacity="1" fill-rule="nonzero"/><path fill="#3881b6" d="M 144.59375 191.617188 C 143.804688 190.566406 142.792969 189.136719 142.117188 188.011719 C 140.398438 185.921875 138.8125 183.710938 137.371094 181.398438 C 136.648438 180.558594 135.714844 179.410156 135.097656 178.492188 L 135.59375 179.433594 L 135.730469 179.683594 C 139.082031 185.117188 139.082031 185.117188 141.085938 187.652344 L 143.46875 190.484375 L 144.59375 191.617188 " fill-opacity="1" fill-rule="nonzero"/><path fill="#69a2cd" d="M 173.410156 202.5625 C 174.964844 202.957031 177.039062 203.480469 178.59375 203.867188 C 178.644531 203.109375 178.769531 202.101562 178.941406 201.363281 C 177.480469 199.972656 176.054688 198.441406 174.671875 196.773438 C 172.925781 196.226562 170.601562 195.5 168.859375 194.953125 C 168.546875 195.921875 168.171875 197.226562 167.980469 198.222656 C 169.730469 199.8125 171.542969 201.261719 173.410156 202.5625 " fill-opacity="1" fill-rule="nonzero"/><path fill="#689ac5" d="M 168.082031 204.027344 C 169.605469 204.382812 171.640625 204.855469 173.171875 205.195312 C 172.8125 204.523438 172.382812 203.59375 172.15625 202.867188 C 170.199219 201.589844 168.300781 200.160156 166.46875 198.589844 C 164.792969 198.09375 162.558594 197.421875 160.890625 196.902344 C 161.023438 197.839844 161.257812 199.085938 161.539062 199.988281 C 163.644531 201.480469 165.828125 202.832031 168.082031 204.027344 " fill-opacity="1" fill-rule="nonzero"/><path fill="#69a2cd" d="M 165.3125 205.242188 C 166.636719 205.601562 168.402344 206.066406 169.734375 206.386719 C 168.96875 205.800781 167.972656 204.984375 167.289062 204.300781 C 164.976562 203.128906 162.734375 201.796875 160.582031 200.324219 C 159.152344 199.84375 157.253906 199.183594 155.839844 198.65625 C 156.503906 199.53125 157.433594 200.671875 158.195312 201.460938 C 160.480469 202.871094 162.859375 204.136719 165.3125 205.242188 " fill-opacity="1" fill-rule="nonzero"/><path fill="#689ac5" d="M 165.25 206.105469 C 166.289062 206.480469 167.683594 206.960938 168.742188 207.28125 C 167.628906 206.761719 166.160156 206.042969 165.085938 205.449219 C 162.613281 204.359375 160.222656 203.109375 157.921875 201.710938 C 156.84375 201.214844 155.421875 200.53125 154.378906 199.972656 C 155.402344 200.710938 156.78125 201.675781 157.851562 202.347656 L 159.441406 203.261719 C 161.320312 204.3125 163.257812 205.261719 165.25 206.105469 " fill-opacity="1" fill-rule="nonzero"/><g fill="#00367d" fill-opacity="1"><g transform="translate(87.235699, 235.495619)"><g><path d="M 10.515625 -9.179688 C 11.773438 -9.734375 12.550781 -11.042969 12.550781 -12.578125 C 12.550781 -15.46875 10.464844 -17.105469 6.742188 -17.105469 L 1.863281 -17.105469 C 1.535156 -17.105469 1.359375 -16.929688 1.359375 -16.601562 L 1.359375 0.503906 C 3.773438 0 5.132812 -1.886719 5.132812 -4.703125 L 5.132812 -7.144531 L 7.699219 -7.144531 C 9.132812 -7.144531 9.9375 -6.3125 9.9375 -5.082031 C 9.9375 -3.824219 9.15625 -3.019531 7.445312 -3.019531 L 5.132812 -3.019531 C 5.457031 -1.054688 6.742188 0.25 8.753906 0.25 C 11.671875 0.25 13.710938 -1.609375 13.710938 -4.453125 C 13.710938 -7.144531 12.578125 -8.652344 10.515625 -9.179688 Z M 5.132812 -10.164062 L 5.132812 -13.835938 L 6.742188 -13.835938 C 8.226562 -13.835938 8.855469 -13.207031 8.855469 -12.023438 C 8.855469 -10.816406 8.199219 -10.164062 6.742188 -10.164062 Z M 5.132812 -10.164062 "/></g></g></g><g fill="#00367d" fill-opacity="1"><g transform="translate(101.595436, 235.495619)"><g><path d="M 12.453125 -3.121094 C 11.03125 -5.105469 9.371094 -6.1875 7.609375 -6.628906 C 11.632812 -6.792969 13.207031 -8.742188 13.207031 -11.746094 C 13.207031 -15.042969 11.496094 -17.105469 7.042969 -17.105469 L 4.753906 -17.105469 L 4.753906 -17.09375 C 4.714844 -17.105469 4.679688 -17.105469 4.628906 -17.105469 L 1.863281 -17.105469 C 1.535156 -17.105469 1.359375 -16.929688 1.359375 -16.601562 L 1.359375 0.503906 C 3.546875 0.25 5.132812 -1.609375 5.132812 -4.753906 L 5.132812 -6.617188 L 5.308594 -6.617188 L 9.734375 -0.328125 C 9.910156 -0.101562 10.085938 0 10.339844 0 L 13.910156 0 C 14.1875 0 14.339844 -0.125 14.339844 -0.328125 C 14.339844 -0.402344 14.3125 -0.503906 14.238281 -0.605469 Z M 9.433594 -11.621094 C 9.433594 -9.359375 7.445312 -9.332031 6.667969 -9.332031 L 5.132812 -9.332031 L 5.132812 -13.835938 L 6.667969 -13.835938 C 7.472656 -13.835938 9.433594 -13.859375 9.433594 -11.621094 Z M 9.433594 -11.621094 "/></g></g></g><g fill="#00367d" fill-opacity="1"><g transform="translate(116.106063, 235.495619)"><g><path d="M 5.9375 0 C 12.300781 0 15.195312 -3.722656 15.195312 -8.550781 C 15.195312 -13.382812 12.277344 -17.105469 5.9375 -17.105469 L 1.863281 -17.105469 C 1.535156 -17.105469 1.359375 -16.929688 1.359375 -16.601562 L 1.359375 -0.503906 C 1.359375 -0.175781 1.535156 0 1.863281 0 Z M 5.132812 -13.683594 L 6.289062 -13.683594 C 9.960938 -13.683594 11.421875 -11.394531 11.421875 -8.550781 C 11.421875 -5.710938 9.9375 -3.421875 6.289062 -3.421875 L 5.132812 -3.421875 Z M 5.132812 -13.683594 "/></g></g></g><g fill="#00367d" fill-opacity="1"><g transform="translate(131.974703, 235.495619)"><g/></g></g><g fill="#00367d" fill-opacity="1"><g transform="translate(138.513284, 235.495619)"><g><path d="M 18.414062 -9.132812 L 8.550781 -9.132812 C 9.054688 -7.34375 10.664062 -6.039062 13.558594 -6.039062 L 13.796875 -6.039062 C 13.433594 -4.378906 11.808594 -3.21875 9.609375 -3.21875 C 6.515625 -3.21875 4.453125 -5.183594 4.453125 -8.527344 C 4.453125 -12.023438 6.691406 -13.960938 9.457031 -13.960938 C 11.21875 -13.960938 12.753906 -13.179688 13.355469 -11.773438 C 13.484375 -11.496094 13.660156 -11.371094 13.9375 -11.371094 L 16.902344 -11.371094 C 17.257812 -11.371094 17.457031 -11.570312 17.355469 -11.921875 C 16.402344 -15.320312 13.230469 -17.382812 9.484375 -17.382812 C 4.703125 -17.382812 0.679688 -14.011719 0.679688 -8.578125 C 0.679688 -3.070312 4.527344 0.203125 9.535156 0.203125 C 13.269531 0.203125 16.652344 -1.785156 17.632812 -6.039062 L 18.414062 -6.039062 C 18.742188 -6.039062 18.917969 -6.214844 18.917969 -6.539062 L 18.917969 -8.628906 C 18.917969 -8.957031 18.742188 -9.132812 18.414062 -9.132812 Z M 18.414062 -9.132812 "/></g></g></g><g fill="#00367d" fill-opacity="1"><g transform="translate(157.776951, 235.495619)"><g><path d="M 4.476562 0 C 4.804688 0 4.980469 -0.175781 4.980469 -0.503906 L 4.980469 -14.085938 C 4.980469 -16.679688 3.648438 -18.363281 1.207031 -18.867188 L 1.207031 -0.503906 C 1.207031 -0.175781 1.382812 0 1.710938 0 Z M 4.476562 0 "/></g></g></g><g fill="#00367d" fill-opacity="1"><g transform="translate(163.988609, 235.495619)"><g><path d="M 7.042969 0.402344 C 10.992188 0.402344 13.355469 -2.039062 13.355469 -5.535156 C 13.355469 -9.003906 10.96875 -11.496094 7.042969 -11.496094 C 3.09375 -11.496094 0.703125 -9.003906 0.703125 -5.535156 C 0.703125 -2.0625 3.070312 0.402344 7.042969 0.402344 Z M 7.042969 -2.539062 C 5.359375 -2.539062 4.453125 -3.847656 4.453125 -5.507812 C 4.453125 -7.195312 5.382812 -8.550781 7.042969 -8.550781 C 8.703125 -8.550781 9.609375 -7.21875 9.609375 -5.507812 C 9.609375 -3.824219 8.703125 -2.539062 7.042969 -2.539062 Z M 7.042969 -2.539062 "/></g></g></g><g fill="#00367d" fill-opacity="1"><g transform="translate(178.071708, 235.495619)"><g><path d="M 8.777344 -11.496094 C 7.246094 -11.496094 5.9375 -10.96875 4.980469 -10.035156 L 4.980469 -14.085938 C 4.980469 -16.679688 3.648438 -18.363281 1.207031 -18.867188 L 1.207031 0.25 C 2.742188 0.25 3.835938 -0.414062 4.441406 -1.671875 C 5.421875 -0.363281 6.941406 0.402344 8.777344 0.402344 C 12.050781 0.402344 14.3125 -2.039062 14.3125 -5.558594 C 14.3125 -9.054688 12.050781 -11.496094 8.777344 -11.496094 Z M 7.621094 -2.617188 C 6.085938 -2.617188 4.980469 -3.824219 4.980469 -5.535156 C 4.980469 -7.246094 6.085938 -8.453125 7.621094 -8.453125 C 9.15625 -8.453125 10.261719 -7.246094 10.261719 -5.535156 C 10.261719 -3.824219 9.15625 -2.617188 7.621094 -2.617188 Z M 7.621094 -2.617188 "/></g></g></g><g fill="#00367d" fill-opacity="1"><g transform="translate(193.110445, 235.495619)"><g><path d="M 10.703125 -9.292969 C 9.722656 -10.664062 8.164062 -11.496094 6.261719 -11.496094 C 2.992188 -11.496094 0.730469 -9.054688 0.730469 -5.558594 C 0.730469 -2.039062 2.992188 0.402344 6.261719 0.402344 C 8.164062 0.402344 9.722656 -0.425781 10.703125 -1.8125 C 11.320312 -0.578125 12.375 0.101562 13.835938 0.25 L 13.835938 -11.34375 C 12.375 -11.195312 11.320312 -10.515625 10.703125 -9.292969 Z M 7.421875 -2.617188 C 5.886719 -2.617188 4.78125 -3.824219 4.78125 -5.535156 C 4.78125 -7.246094 5.886719 -8.453125 7.421875 -8.453125 C 8.957031 -8.453125 10.0625 -7.246094 10.0625 -5.535156 C 10.0625 -3.824219 8.957031 -2.617188 7.421875 -2.617188 Z M 7.421875 -2.617188 "/></g></g></g><g fill="#00367d" fill-opacity="1"><g transform="translate(208.174337, 235.495619)"><g><path d="M 4.476562 0 C 4.804688 0 4.980469 -0.175781 4.980469 -0.503906 L 4.980469 -14.085938 C 4.980469 -16.679688 3.648438 -18.363281 1.207031 -18.867188 L 1.207031 -0.503906 C 1.207031 -0.175781 1.382812 0 1.710938 0 Z M 4.476562 0 "/></g></g></g><g fill="#00367d" fill-opacity="1"><g transform="translate(214.385995, 235.495619)"><g/></g></g><g fill="#00367d" fill-opacity="1"><g transform="translate(220.924576, 235.495619)"><g><path d="M 0.605469 -17.105469 C 0.277344 -17.105469 0.101562 -16.929688 0.101562 -16.601562 L 0.101562 -14.1875 C 0.101562 -13.859375 0.277344 -13.683594 0.605469 -13.683594 L 7.246094 -13.683594 C 5.734375 -13.042969 4.730469 -11.230469 4.730469 -8.929688 L 4.730469 -0.503906 C 4.730469 -0.175781 4.90625 0 5.230469 0 L 8 0 C 8.328125 0 8.503906 -0.175781 8.503906 -0.503906 L 8.503906 -13.683594 L 12.628906 -13.683594 C 12.953125 -13.683594 13.132812 -13.859375 13.132812 -14.1875 L 13.132812 -16.601562 C 13.132812 -16.929688 12.953125 -17.105469 12.628906 -17.105469 Z M 0.605469 -17.105469 "/></g></g></g><g fill="#00367d" fill-opacity="1"><g transform="translate(234.177783, 235.495619)"><g><path d="M 8.601562 -11.246094 C 8.351562 -11.292969 8.050781 -11.34375 7.773438 -11.34375 C 6.441406 -11.34375 5.195312 -10.742188 4.402344 -9.132812 C 3.796875 -10.277344 2.714844 -11.03125 1.207031 -11.34375 L 1.207031 -0.503906 C 1.207031 -0.175781 1.382812 0 1.710938 0 L 4.476562 0 C 4.804688 0 4.980469 -0.175781 4.980469 -0.503906 L 4.980469 -5.585938 C 5.132812 -7.117188 5.910156 -7.921875 7.269531 -7.921875 C 7.621094 -7.921875 8 -7.875 8.425781 -7.773438 C 8.777344 -7.671875 9.003906 -7.824219 9.003906 -8.175781 L 9.003906 -10.664062 C 9.003906 -10.941406 8.878906 -11.167969 8.601562 -11.246094 Z M 8.601562 -11.246094 "/></g></g></g><g fill="#00367d" fill-opacity="1"><g transform="translate(243.608435, 235.495619)"><g><path d="M 10.703125 -9.292969 C 9.722656 -10.664062 8.164062 -11.496094 6.261719 -11.496094 C 2.992188 -11.496094 0.730469 -9.054688 0.730469 -5.558594 C 0.730469 -2.039062 2.992188 0.402344 6.261719 0.402344 C 8.164062 0.402344 9.722656 -0.425781 10.703125 -1.8125 C 11.320312 -0.578125 12.375 0.101562 13.835938 0.25 L 13.835938 -11.34375 C 12.375 -11.195312 11.320312 -10.515625 10.703125 -9.292969 Z M 7.421875 -2.617188 C 5.886719 -2.617188 4.78125 -3.824219 4.78125 -5.535156 C 4.78125 -7.246094 5.886719 -8.453125 7.421875 -8.453125 C 8.957031 -8.453125 10.0625 -7.246094 10.0625 -5.535156 C 10.0625 -3.824219 8.957031 -2.617188 7.421875 -2.617188 Z M 7.421875 -2.617188 "/></g></g></g><g fill="#00367d" fill-opacity="1"><g transform="translate(258.672327, 235.495619)"><g><path d="M 10.0625 -10.035156 C 9.105469 -10.96875 7.796875 -11.496094 6.261719 -11.496094 C 2.992188 -11.496094 0.730469 -9.054688 0.730469 -5.558594 C 0.730469 -2.039062 2.992188 0.402344 6.261719 0.402344 C 8.101562 0.402344 9.621094 -0.363281 10.601562 -1.671875 C 11.207031 -0.414062 12.300781 0.25 13.835938 0.25 L 13.835938 -14.085938 C 13.835938 -16.679688 12.503906 -18.363281 10.0625 -18.867188 Z M 7.421875 -2.617188 C 5.886719 -2.617188 4.78125 -3.824219 4.78125 -5.535156 C 4.78125 -7.246094 5.886719 -8.453125 7.421875 -8.453125 C 8.957031 -8.453125 10.0625 -7.246094 10.0625 -5.535156 C 10.0625 -3.824219 8.957031 -2.617188 7.421875 -2.617188 Z M 7.421875 -2.617188 "/></g></g></g><g fill="#00367d" fill-opacity="1"><g transform="translate(273.736218, 235.495619)"><g><path d="M 7.144531 -11.496094 C 3.421875 -11.496094 0.679688 -9.15625 0.679688 -5.535156 C 0.679688 -1.863281 3.320312 0.402344 7.144531 0.402344 C 9.910156 0.402344 12.097656 -0.804688 12.980469 -3.320312 C 13.105469 -3.671875 12.90625 -3.898438 12.550781 -3.898438 L 9.761719 -3.898438 C 9.484375 -3.898438 9.332031 -3.75 9.207031 -3.472656 C 8.90625 -2.792969 8.175781 -2.289062 7.070312 -2.289062 C 5.660156 -2.289062 4.78125 -3.296875 4.679688 -4.828125 L 12.777344 -4.828125 C 13.105469 -4.828125 13.28125 -5.003906 13.28125 -5.332031 L 13.28125 -5.785156 C 13.28125 -9.457031 10.515625 -11.496094 7.144531 -11.496094 Z M 4.730469 -6.867188 C 4.941406 -8.074219 5.621094 -8.929688 7.019531 -8.929688 C 8.351562 -8.929688 9.207031 -8.074219 9.28125 -6.867188 Z M 4.730469 -6.867188 "/></g></g></g><g fill="#00367d" fill-opacity="1"><g transform="translate(112.50103, 255.065345)"><g><path d="M 4.398438 -4.039062 L 4.398438 -3.074219 L 7.648438 -3.074219 C 7.355469 -1.746094 6.179688 -0.863281 4.691406 -0.863281 C 2.851562 -0.863281 1.59375 -2.175781 1.59375 -4.0625 C 1.59375 -5.9375 2.886719 -7.261719 4.691406 -7.261719 C 6.0625 -7.261719 7.226562 -6.484375 7.578125 -5.296875 L 8.636719 -5.296875 C 8.277344 -7.042969 6.625 -8.265625 4.667969 -8.265625 C 2.292969 -8.265625 0.558594 -6.484375 0.558594 -4.0625 C 0.558594 -1.640625 2.292969 0.140625 4.691406 0.140625 C 7.042969 0.140625 8.71875 -1.582031 8.765625 -4.039062 Z M 4.398438 -4.039062 "/></g></g></g><g fill="#00367d" fill-opacity="1"><g transform="translate(124.116492, 255.065345)"><g><path d="M 3.828125 0.140625 C 5.726562 0.140625 7.160156 -1.257812 7.160156 -3.144531 C 7.160156 -5.015625 5.726562 -6.414062 3.828125 -6.414062 C 1.921875 -6.414062 0.488281 -5.027344 0.488281 -3.144531 C 0.488281 -1.257812 1.921875 0.140625 3.828125 0.140625 Z M 3.828125 -0.816406 C 2.480469 -0.816406 1.5 -1.792969 1.5 -3.144531 C 1.5 -4.480469 2.480469 -5.460938 3.828125 -5.460938 C 5.167969 -5.460938 6.144531 -4.480469 6.144531 -3.132812 C 6.144531 -1.792969 5.167969 -0.816406 3.828125 -0.816406 Z M 3.828125 -0.816406 "/></g></g></g><g fill="#00367d" fill-opacity="1"><g transform="translate(134.114457, 255.065345)"><g/></g></g><g fill="#00367d" fill-opacity="1"><g transform="translate(139.492662, 255.065345)"><g><path d="M 6.179688 -6.285156 L 6.03125 -5.308594 C 5.460938 -5.996094 4.597656 -6.414062 3.585938 -6.414062 C 1.839844 -6.414062 0.5 -5.050781 0.5 -3.304688 C 0.5 -1.546875 1.839844 -0.199219 3.585938 -0.199219 C 4.515625 -0.199219 5.320312 -0.546875 5.878906 -1.128906 L 5.878906 -0.746094 C 5.878906 0.652344 5.015625 1.476562 3.757812 1.476562 C 2.851562 1.476562 2.058594 1.035156 1.78125 0.257812 L 0.792969 0.257812 C 1.128906 1.582031 2.222656 2.386719 3.757812 2.386719 C 5.679688 2.386719 6.84375 1.152344 6.84375 -0.871094 L 6.84375 -6.273438 Z M 3.691406 -1.140625 C 2.433594 -1.140625 1.5 -2.070312 1.5 -3.304688 C 1.5 -4.539062 2.433594 -5.472656 3.691406 -5.472656 C 4.945312 -5.472656 5.867188 -4.550781 5.867188 -3.304688 C 5.867188 -2.058594 4.957031 -1.140625 3.691406 -1.140625 Z M 3.691406 -1.140625 "/></g></g></g><g fill="#00367d" fill-opacity="1"><g transform="translate(149.665172, 255.065345)"><g><path d="M 0.988281 0 L 1.980469 0 L 1.980469 -8.519531 L 0.988281 -8.519531 Z M 0.988281 0 "/></g></g></g><g fill="#00367d" fill-opacity="1"><g transform="translate(154.973553, 255.065345)"><g><path d="M 3.828125 0.140625 C 5.726562 0.140625 7.160156 -1.257812 7.160156 -3.144531 C 7.160156 -5.015625 5.726562 -6.414062 3.828125 -6.414062 C 1.921875 -6.414062 0.488281 -5.027344 0.488281 -3.144531 C 0.488281 -1.257812 1.921875 0.140625 3.828125 0.140625 Z M 3.828125 -0.816406 C 2.480469 -0.816406 1.5 -1.792969 1.5 -3.144531 C 1.5 -4.480469 2.480469 -5.460938 3.828125 -5.460938 C 5.167969 -5.460938 6.144531 -4.480469 6.144531 -3.132812 C 6.144531 -1.792969 5.167969 -0.816406 3.828125 -0.816406 Z M 3.828125 -0.816406 "/></g></g></g><g fill="#00367d" fill-opacity="1"><g transform="translate(164.971518, 255.065345)"><g><path d="M 4.308594 -6.414062 C 3.375 -6.414062 2.5625 -6.0625 1.980469 -5.484375 L 1.980469 -8.519531 L 0.988281 -8.519531 L 0.988281 0 L 1.757812 0 L 1.898438 -0.882812 C 2.480469 -0.246094 3.328125 0.140625 4.308594 0.140625 C 6.203125 0.140625 7.554688 -1.269531 7.554688 -3.144531 C 7.554688 -5.015625 6.203125 -6.414062 4.308594 -6.414062 Z M 4.238281 -0.816406 C 2.898438 -0.816406 1.921875 -1.828125 1.921875 -3.144531 C 1.921875 -4.457031 2.898438 -5.460938 4.238281 -5.460938 C 5.5625 -5.460938 6.542969 -4.46875 6.542969 -3.144531 C 6.542969 -1.804688 5.5625 -0.816406 4.238281 -0.816406 Z M 4.238281 -0.816406 "/></g></g></g><g fill="#00367d" fill-opacity="1"><g transform="translate(175.353488, 255.065345)"><g><path d="M 6.355469 -6.285156 L 6.226562 -5.320312 C 5.644531 -6.007812 4.773438 -6.414062 3.75 -6.414062 C 1.886719 -6.414062 0.488281 -5.015625 0.488281 -3.132812 C 0.488281 -1.269531 1.886719 0.140625 3.75 0.140625 C 4.773438 0.140625 5.632812 -0.269531 6.214844 -0.941406 L 6.320312 0 L 7.136719 0 L 7.136719 -6.285156 Z M 3.816406 -0.816406 C 2.492188 -0.816406 1.5 -1.816406 1.5 -3.144531 C 1.5 -4.457031 2.492188 -5.460938 3.816406 -5.460938 C 5.15625 -5.460938 6.121094 -4.46875 6.121094 -3.144531 C 6.121094 -1.804688 5.15625 -0.816406 3.816406 -0.816406 Z M 3.816406 -0.816406 "/></g></g></g><g fill="#00367d" fill-opacity="1"><g transform="translate(185.816918, 255.065345)"><g><path d="M 0.988281 0 L 1.980469 0 L 1.980469 -8.519531 L 0.988281 -8.519531 Z M 0.988281 0 "/></g></g></g><g fill="#00367d" fill-opacity="1"><g transform="translate(191.1253, 255.065345)"><g><path d="M 0.851562 1.546875 C 1.570312 1.351562 1.992188 0.851562 1.992188 -0.0820312 L 1.992188 -1.222656 L 0.792969 -1.222656 L 0.792969 0 L 1.453125 0 C 1.453125 0.511719 1.292969 0.851562 0.851562 1 Z M 0.851562 1.546875 "/></g></g></g><g fill="#00367d" fill-opacity="1"><g transform="translate(196.259136, 255.065345)"><g/></g></g><g fill="#00367d" fill-opacity="1"><g transform="translate(201.637338, 255.065345)"><g><path d="M 6.179688 -6.285156 L 6.03125 -5.308594 C 5.460938 -5.996094 4.597656 -6.414062 3.585938 -6.414062 C 1.839844 -6.414062 0.5 -5.050781 0.5 -3.304688 C 0.5 -1.546875 1.839844 -0.199219 3.585938 -0.199219 C 4.515625 -0.199219 5.320312 -0.546875 5.878906 -1.128906 L 5.878906 -0.746094 C 5.878906 0.652344 5.015625 1.476562 3.757812 1.476562 C 2.851562 1.476562 2.058594 1.035156 1.78125 0.257812 L 0.792969 0.257812 C 1.128906 1.582031 2.222656 2.386719 3.757812 2.386719 C 5.679688 2.386719 6.84375 1.152344 6.84375 -0.871094 L 6.84375 -6.273438 Z M 3.691406 -1.140625 C 2.433594 -1.140625 1.5 -2.070312 1.5 -3.304688 C 1.5 -4.539062 2.433594 -5.472656 3.691406 -5.472656 C 4.945312 -5.472656 5.867188 -4.550781 5.867188 -3.304688 C 5.867188 -2.058594 4.957031 -1.140625 3.691406 -1.140625 Z M 3.691406 -1.140625 "/></g></g></g><g fill="#00367d" fill-opacity="1"><g transform="translate(211.809853, 255.065345)"><g><path d="M 3.828125 0.140625 C 5.726562 0.140625 7.160156 -1.257812 7.160156 -3.144531 C 7.160156 -5.015625 5.726562 -6.414062 3.828125 -6.414062 C 1.921875 -6.414062 0.488281 -5.027344 0.488281 -3.144531 C 0.488281 -1.257812 1.921875 0.140625 3.828125 0.140625 Z M 3.828125 -0.816406 C 2.480469 -0.816406 1.5 -1.792969 1.5 -3.144531 C 1.5 -4.480469 2.480469 -5.460938 3.828125 -5.460938 C 5.167969 -5.460938 6.144531 -4.480469 6.144531 -3.132812 C 6.144531 -1.792969 5.167969 -0.816406 3.828125 -0.816406 Z M 3.828125 -0.816406 "/></g></g></g><g fill="#00367d" fill-opacity="1"><g transform="translate(221.807823, 255.065345)"><g/></g></g><g fill="#00367d" fill-opacity="1"><g transform="translate(227.186031, 255.065345)"><g><path d="M 5.621094 -4.226562 C 6.226562 -4.585938 6.625 -5.332031 6.625 -6.0625 C 6.625 -7.25 5.65625 -8.148438 4.332031 -8.148438 L 1.105469 -8.148438 L 1.105469 0 L 4.363281 0 C 5.773438 0 6.832031 -0.976562 6.832031 -2.234375 C 6.832031 -3.132812 6.378906 -3.898438 5.621094 -4.226562 Z M 5.574219 -5.925781 C 5.574219 -5.25 5.039062 -4.703125 4.308594 -4.703125 L 2.117188 -4.703125 L 2.117188 -7.148438 L 4.308594 -7.148438 C 5.015625 -7.148438 5.574219 -6.613281 5.574219 -5.925781 Z M 4.351562 -1 L 2.117188 -1 L 2.117188 -3.703125 L 4.363281 -3.703125 C 5.167969 -3.703125 5.785156 -3.121094 5.785156 -2.351562 C 5.785156 -1.570312 5.167969 -1 4.351562 -1 Z M 4.351562 -1 "/></g></g></g><g fill="#00367d" fill-opacity="1"><g transform="translate(237.021083, 255.065345)"><g><path d="M 5.855469 0 L 7.007812 0 L 5.050781 -3.304688 C 6.121094 -3.609375 6.855469 -4.503906 6.855469 -5.65625 C 6.855469 -7.101562 5.726562 -8.148438 4.203125 -8.148438 L 1.105469 -8.148438 L 1.105469 0 L 2.128906 0 L 2.128906 -3.175781 L 3.980469 -3.175781 Z M 2.128906 -7.171875 L 4.144531 -7.171875 C 5.144531 -7.171875 5.808594 -6.53125 5.808594 -5.65625 C 5.808594 -4.785156 5.144531 -4.15625 4.144531 -4.15625 L 2.128906 -4.15625 Z M 2.128906 -7.171875 "/></g></g></g><g fill="#00367d" fill-opacity="1"><g transform="translate(246.844496, 255.065345)"><g><path d="M 3.816406 -8.148438 L 1.105469 -8.148438 L 1.105469 0 L 3.816406 0 C 6.214844 0 7.949219 -1.710938 7.949219 -4.074219 C 7.949219 -6.425781 6.214844 -8.136719 3.816406 -8.136719 Z M 3.792969 -0.953125 L 2.128906 -0.953125 L 2.128906 -7.183594 L 3.792969 -7.183594 C 5.621094 -7.183594 6.914062 -5.867188 6.914062 -4.074219 C 6.914062 -2.269531 5.621094 -0.953125 3.792969 -0.953125 Z M 3.792969 -0.953125 "/></g></g></g></svg>